<?xml version="1.0" standalone="no"?>
<!DOCTYPE svg PUBLIC "-//W3C//DTD SVG 20010904//EN"
 "http://www.w3.org/TR/2001/REC-SVG-20010904/DTD/svg10.dtd">
<svg version="1.0" xmlns="http://www.w3.org/2000/svg"
 width="492.000000pt" height="507.000000pt" viewBox="0 0 492.000000 507.000000"
 preserveAspectRatio="xMidYMid meet" fill="red">

<g transform="translate(0.000000,507.000000) scale(0.100000,-0.100000)"
fill="#000000" stroke="none">
<path d="M2363 4758 c4 -106 14 -416 22 -688 16 -539 19 -572 41 -591 28 -23
37 3 26 73 -6 35 -16 259 -22 498 -15 590 -27 855 -40 880 -6 11 -16 20 -22
20 -8 0 -9 -53 -5 -192z"/>
<path d="M3370 4782 c-32 -66 -141 -336 -216 -532 -118 -310 -285 -716 -316
-767 -23 -38 -21 -96 2 -101 16 -3 29 29 402 963 109 273 168 432 168 455 0
37 -18 29 -40 -18z"/>
<path d="M1593 4648 c3 -18 33 -94 67 -168 34 -74 84 -187 110 -250 26 -63 84
-196 128 -295 43 -99 101 -236 127 -305 54 -144 60 -157 88 -187 38 -42 52 6
17 61 -10 18 -73 162 -139 321 -136 330 -335 786 -357 820 -8 13 -22 26 -31
29 -13 5 -15 1 -10 -26z"/>
<path d="M2070 4395 c-17 -21 -7 -110 36 -315 23 -114 39 -169 51 -178 50 -37
53 33 9 230 -40 180 -64 266 -76 273 -4 2 -13 -2 -20 -10z"/>
<path d="M2736 4372 c-3 -5 -19 -109 -36 -232 -28 -209 -29 -224 -14 -242 24
-25 32 -23 49 15 17 39 55 313 55 402 0 62 -1 65 -24 65 -14 0 -27 -4 -30 -8z"/>
<path d="M906 4331 c-3 -5 121 -159 277 -343 155 -183 311 -369 347 -413 35
-44 98 -120 139 -168 58 -69 71 -91 60 -98 -8 -5 -17 -9 -21 -9 -22 0 8 -27
42 -38 98 -30 125 -1 58 62 -40 38 -252 288 -661 781 -87 104 -169 200 -183
213 -26 23 -49 28 -58 13z"/>
<path d="M3643 4247 c-50 -57 -313 -456 -313 -475 0 -27 16 -44 36 -40 19 3
282 386 326 474 36 73 3 100 -49 41z"/>
<path d="M1452 4208 c-7 -7 -12 -16 -12 -21 0 -6 31 -55 68 -111 38 -56 92
-143 122 -193 43 -76 57 -93 76 -93 20 0 24 5 24 33 0 43 -129 262 -201 341
-55 60 -59 62 -77 44z"/>
<path d="M4035 4033 c-71 -69 -220 -209 -330 -311 -110 -103 -254 -239 -320
-303 -66 -63 -141 -132 -166 -152 -58 -45 -93 -101 -75 -116 12 -10 166 128
726 657 307 290 310 293 310 318 0 12 -3 25 -7 27 -5 3 -66 -51 -138 -120z"/>
<path d="M890 3804 c0 -28 128 -163 283 -298 92 -80 120 -90 125 -45 3 22 -13
41 -95 116 -292 268 -313 284 -313 227z"/>
<path d="M2212 3748 c-7 -7 -12 -23 -12 -36 0 -38 41 -226 53 -240 17 -21 52
-10 55 17 6 43 -58 271 -77 271 -4 0 -12 -5 -19 -12z"/>
<path d="M2645 3729 c-11 -16 -32 -117 -40 -184 -6 -54 -4 -63 15 -80 22 -20
22 -20 41 4 10 13 19 31 19 40 0 9 5 57 10 108 5 51 7 99 4 108 -7 17 -40 20
-49 4z"/>
<path d="M1796 3633 c-7 -17 2 -37 78 -173 60 -106 63 -110 92 -110 20 0 24 5
24 30 0 36 -17 71 -72 155 -71 106 -108 136 -122 98z"/>
<path d="M4005 3559 c-288 -192 -325 -223 -309 -264 14 -35 33 -25 244 126
193 138 239 181 220 204 -7 8 -18 15 -24 14 -6 0 -65 -36 -131 -80z"/>
<path d="M3174 3602 c-19 -12 -173 -226 -182 -252 -5 -14 -6 -35 -1 -47 7 -20
12 -21 31 -12 13 5 36 32 51 58 14 26 54 89 87 140 33 50 60 95 60 100 0 5 -7
12 -16 15 -19 7 -17 7 -30 -2z"/>
<path d="M350 3591 c0 -18 64 -60 184 -118 38 -19 94 -49 125 -67 31 -19 155
-89 276 -156 121 -68 290 -164 375 -215 162 -96 204 -115 252 -115 45 0 32 31
-19 46 -23 7 -99 46 -170 87 -127 73 -349 199 -553 312 -58 32 -156 89 -218
127 -63 38 -131 77 -152 88 -41 21 -100 27 -100 11z"/>
<path d="M4460 3368 c-91 -44 -219 -105 -285 -135 -454 -209 -719 -327 -752
-337 -15 -5 -24 -2 -31 11 -9 16 -13 16 -37 3 -54 -29 -60 -100 -8 -100 14 0
157 59 317 132 160 72 359 162 441 199 440 198 503 229 533 257 34 31 35 53 4
51 -9 0 -91 -37 -182 -81z"/>
<path d="M1406 3302 c-11 -18 37 -74 124 -147 72 -59 98 -75 119 -73 20 2 26
8 26 27 0 20 -24 43 -115 113 -108 82 -142 100 -154 80z"/>
<path d="M3418 3152 c-145 -88 -170 -109 -166 -140 2 -16 10 -28 21 -30 35 -7
280 178 271 203 -10 26 -46 16 -126 -33z"/>
<path d="M495 3090 c-16 -26 8 -50 83 -79 140 -53 409 -141 435 -141 29 0 52
23 44 44 -3 8 -19 22 -36 30 -28 15 -260 86 -411 126 -36 9 -75 20 -87 24 -12
4 -24 2 -28 -4z"/>
<path d="M4260 2874 c-240 -39 -324 -58 -342 -76 -22 -22 -23 -47 -3 -54 8 -3
99 11 202 31 103 20 225 43 271 52 75 14 83 18 80 37 -3 18 -10 21 -63 23 -33
1 -98 -5 -145 -13z"/>
<path d="M1227 2853 c-31 -30 17 -57 183 -104 83 -24 97 -24 110 2 9 16 8 25
-6 40 -9 10 -25 19 -35 19 -10 0 -64 11 -121 25 -111 27 -121 28 -131 18z"/>
<path d="M3536 2729 c-128 -24 -164 -36 -176 -59 -14 -25 -13 -28 10 -40 21
-11 50 -5 238 47 82 23 93 28 90 47 -4 28 -38 29 -162 5z"/>
<path d="M770 2598 c-322 -4 -605 -11 -630 -16 -37 -6 -46 -12 -48 -31 -4 -22
-1 -23 45 -18 26 3 306 11 620 17 l572 12 41 -21 c59 -31 130 -26 130 10 0 51
-64 55 -730 47z"/>
<path d="M4005 2500 c-346 -3 -631 -7 -633 -8 -2 -1 -2 -12 0 -24 l3 -23 710
3 c734 4 756 5 763 45 3 15 -7 17 -105 15 -59 -2 -391 -5 -738 -8z"/>
<path d="M1350 2366 c-61 -16 -86 -27 -88 -39 -2 -12 4 -17 20 -19 82 -5 206
19 219 43 24 45 -20 49 -151 15z"/>
<path d="M3340 2304 c-11 -13 -10 -19 11 -39 42 -41 277 -103 293 -77 13 22
-7 39 -77 62 -40 14 -92 35 -116 47 -51 27 -93 29 -111 7z"/>
<path d="M815 2249 c-93 -21 -203 -46 -242 -55 -46 -10 -73 -21 -73 -29 0 -23
52 -26 150 -10 205 34 376 68 388 78 17 13 15 44 -4 51 -23 9 -34 7 -219 -35z"/>
<path d="M1476 2184 c-21 -15 -93 -50 -160 -79 -66 -29 -229 -101 -361 -160
-132 -60 -307 -138 -390 -175 -236 -105 -295 -138 -295 -162 0 -20 51 -4 182
57 77 36 230 106 341 156 111 49 249 112 307 139 116 53 373 164 406 174 31
10 64 44 58 61 -9 23 -45 18 -88 -11z"/>
<path d="M3831 2176 c-22 -27 0 -45 87 -71 48 -14 121 -37 162 -51 95 -30 291
-75 302 -68 4 3 8 14 8 24 0 15 -41 32 -246 99 -250 82 -293 92 -313 67z"/>
<path d="M3268 2127 c-14 -26 -11 -28 166 -123 166 -89 652 -356 954 -523 114
-64 182 -85 197 -61 12 19 -22 41 -195 128 -85 43 -208 109 -273 145 -65 37
-179 101 -255 141 -310 167 -485 266 -496 281 -6 9 -28 20 -49 25 -33 7 -39 5
-49 -13z"/>
<path d="M1555 1992 c-38 -26 -87 -57 -108 -70 -21 -12 -35 -27 -32 -32 12
-20 69 -9 135 26 84 44 119 78 104 101 -17 27 -25 25 -99 -25z"/>
<path d="M3187 1983 c-25 -24 34 -94 154 -184 58 -43 74 -47 83 -23 8 21 4 27
-101 127 -83 79 -117 99 -136 80z"/>
<path d="M1714 1834 c-21 -25 -163 -163 -314 -307 -524 -497 -686 -669 -652
-691 5 -3 94 79 198 182 275 273 731 712 773 745 43 35 74 90 58 106 -17 17
-20 14 -63 -35z"/>
<path d="M3050 1845 c-10 -12 1 -29 57 -97 38 -46 120 -146 183 -223 221 -271
647 -780 671 -801 13 -12 34 -25 47 -29 41 -12 24 21 -66 127 -93 109 -339
403 -608 730 -89 107 -173 213 -188 236 -23 37 -61 72 -77 72 -4 0 -12 -7 -19
-15z"/>
<path d="M1878 1753 c-9 -10 -23 -34 -32 -54 -9 -20 -40 -61 -67 -93 -53 -59
-58 -86 -17 -86 16 0 47 26 100 83 43 45 78 85 78 88 0 15 -31 79 -39 79 -4 0
-15 -8 -23 -17z"/>
<path d="M2897 1753 c-21 -20 4 -79 81 -196 47 -72 66 -87 84 -69 17 17 -97
246 -129 261 -28 13 -28 13 -36 4z"/>
<path d="M1138 1661 c-59 -43 -150 -107 -202 -142 -59 -39 -95 -71 -96 -81 -1
-45 81 -7 301 137 115 77 159 116 159 144 0 42 -49 24 -162 -58z"/>
<path d="M2027 1683 c-3 -4 -8 -28 -12 -52 -4 -24 -101 -328 -215 -675 -206
-622 -231 -706 -213 -706 17 0 42 57 101 240 33 102 133 405 222 674 88 269
159 496 158 505 -3 17 -33 27 -41 14z"/>
<path d="M2733 1649 c-7 -7 12 -65 62 -192 40 -100 112 -283 160 -407 48 -124
125 -320 171 -437 93 -238 136 -328 159 -336 8 -4 15 -2 15 3 0 21 -145 403
-317 835 -52 132 -115 294 -139 360 -25 66 -51 135 -59 153 -15 33 -33 40 -52
21z"/>
<path d="M3505 1633 c3 -16 12 -33 18 -39 53 -51 300 -253 336 -276 42 -26 47
-27 58 -12 7 9 9 22 5 29 -4 6 -65 63 -137 125 -71 62 -151 133 -177 157 -35
32 -55 43 -79 43 -29 0 -31 -2 -24 -27z"/>
<path d="M2176 1613 c-2 -10 -8 -57 -12 -105 -6 -77 -4 -89 11 -94 9 -4 20 -3
25 2 12 12 40 181 33 199 -7 21 -51 19 -57 -2z"/>
<path d="M2418 1598 c-17 -14 -18 48 12 -893 10 -329 23 -524 36 -558 3 -10
12 -16 18 -14 12 4 12 86 -5 657 -6 190 -12 447 -14 572 -3 255 -6 268 -47
236z"/>
<path d="M2571 1586 c-9 -11 -7 -33 10 -100 17 -69 25 -86 40 -86 27 0 33 39
17 111 -15 69 -45 102 -67 75z"/>
<path d="M3112 1318 c2 -20 59 -125 141 -263 173 -288 162 -274 184 -252 17
16 13 26 -60 168 -43 82 -109 200 -146 262 -57 95 -71 112 -95 115 -27 3 -28
2 -24 -30z"/>
<path d="M1603 1298 c-11 -13 -44 -63 -73 -113 -47 -79 -97 -153 -218 -323
-21 -29 -32 -55 -30 -71 3 -22 8 -26 38 -26 29 0 37 5 49 30 8 17 48 84 91
150 118 186 210 343 210 360 0 23 -43 18 -67 -7z"/>
<path d="M2167 1142 c-39 -98 -70 -489 -40 -499 19 -7 29 29 47 177 10 74 26
178 37 232 10 53 16 103 13 112 -11 29 -41 18 -57 -22z"/>
<path d="M2671 1146 c-9 -11 -8 -35 3 -103 50 -304 68 -399 75 -406 4 -4 15
-1 26 7 17 13 18 20 6 132 -15 145 -48 340 -62 366 -12 22 -32 23 -48 4z"/>
</g>
</svg>
